<svg width="414" height="93" viewBox="0 0 414 93" fill="none" xmlns="http://www.w3.org/2000/svg">
<path d="M29.4619 0.0914917L20.2132 16.6443H78.2027L52.8333 62.0488H84.0002L84.0087 75.7633H29.1588L54.5132 30.3814L12.575 30.3155L3.33491 46.8534L25.881 46.8892L0.5 92.3157H84.0002H101.065V45.4959H81.4924L89.1569 31.7782H115.234V92.3157H132.297V15.2253H98.4059L106.862 0.0914917H29.4619Z" fill="#190933"/>
<path d="M163.929 62.772H171.773C181.389 62.772 187.42 57.4599 187.42 48.0161C187.42 38.7832 181.431 33.2603 171.773 33.2603H163.929V62.772ZM169.875 57.6285V38.4459H171.984C177.593 38.4459 181.221 41.8187 181.221 48.0161C181.221 54.3822 177.593 57.6285 171.984 57.6285H169.875Z" fill="#190933"/>
<path d="M191.017 62.7716H196.837V40.7221H191.017V62.7716ZM190.511 35.41C190.511 37.3071 191.987 38.7406 193.885 38.7406C195.825 38.7406 197.301 37.3071 197.301 35.41C197.301 33.5128 195.825 32.0793 193.885 32.0793C191.987 32.0793 190.511 33.5128 190.511 35.41Z" fill="#190933"/>
<path d="M203.04 68.8431C205.022 69.9393 208.101 70.8668 211.137 70.8668C217.632 70.8668 222.989 68.2107 222.989 59.9896V40.7226H217.506V43.0414C216.873 42.1982 214.638 40.1746 210.927 40.1746C204.642 40.1746 200.172 44.9808 200.172 51.7685C200.172 58.5562 204.347 63.3202 210.716 63.3202C214.554 63.3202 216.705 61.1279 217.168 60.4955V61.5074C217.168 64.9223 214.258 65.892 211.095 65.892C208.059 65.892 205.528 64.7536 204.811 64.3742L203.04 68.8431ZM217.337 51.7263C217.337 55.6472 215.06 58.1767 211.686 58.1767C208.396 58.1767 206.034 55.605 206.034 51.7263C206.034 47.8476 208.354 45.318 211.644 45.318C215.06 45.318 217.337 47.9741 217.337 51.7263Z" fill="#190933"/>
<path d="M227.384 62.7716H233.205V40.7221H227.384V62.7716ZM226.879 35.41C226.879 37.3071 228.355 38.7406 230.252 38.7406C232.192 38.7406 233.669 37.3071 233.669 35.41C233.669 33.5128 232.192 32.0793 230.252 32.0793C228.355 32.0793 226.879 33.5128 226.879 35.41Z" fill="#190933"/>
<path d="M238.353 40.7233H235.991V45.4451H238.311V54.13C238.311 60.1167 240.63 63.0679 245.902 63.0679C247.505 63.0679 248.391 62.8571 248.391 62.8571V57.8822C247.927 57.9244 247.716 57.9244 247.336 57.9244C245.101 57.9244 244.089 57.2498 244.089 53.9614V45.4451H248.222V40.7233H244.089V36.0857H238.353V40.7233Z" fill="#190933"/>
<path d="M250.584 55.9423C250.584 60.5798 254.38 63.3202 258.851 63.3202C261.381 63.3202 263.068 62.5613 264.208 61.3387L264.588 62.7721H269.733V48.8173C269.733 43.8846 267.624 40.1746 260.538 40.1746C257.164 40.1746 253.832 41.4394 251.849 42.7885L254.043 46.7515C255.687 45.9083 257.712 45.1916 259.905 45.1916C262.478 45.1916 263.912 46.4985 263.912 48.4379V49.8713C263.11 49.3232 261.381 48.6487 259.146 48.6487C254 48.6487 250.584 51.5998 250.584 55.9423ZM256.404 55.7736C256.404 53.9608 257.965 52.696 260.2 52.696C262.435 52.696 264.038 53.8343 264.038 55.7736C264.038 57.6287 262.435 58.8091 260.242 58.8091C258.049 58.8091 256.404 57.5865 256.404 55.7736Z" fill="#190933"/>
<path d="M274.048 62.7718H279.868V32.2903H274.048V62.7718Z" fill="#190933"/>
<path d="M303.745 32.7124C298.093 32.7124 294.466 36.1273 294.466 41.1022C294.466 50.5459 307.203 49.7027 307.203 54.7619C307.203 56.6591 305.896 57.7974 303.703 57.7974C301.046 57.7974 299.401 55.9845 298.599 54.0452L293.581 56.4904C294.424 58.8935 297.039 63.3203 303.365 63.3203C309.523 63.3203 313.234 59.5259 313.234 54.3403C313.234 45.1917 300.413 45.9084 300.413 41.0179C300.413 39.4158 301.594 38.1932 303.618 38.1932C306.191 38.1932 307.288 40.006 307.92 41.3973L312.855 39.1628C312.138 37.0127 309.691 32.7124 303.745 32.7124Z" fill="#190933"/>
<path d="M317.473 40.7233H315.111V45.4451H317.43V54.13C317.43 60.1167 319.75 63.0679 325.022 63.0679C326.625 63.0679 327.51 62.8571 327.51 62.8571V57.8822C327.046 57.9244 326.836 57.9244 326.456 57.9244C324.221 57.9244 323.208 57.2498 323.208 53.9614V45.4451H327.342V40.7233H323.208V36.0857H317.473V40.7233Z" fill="#190933"/>
<path d="M338.434 63.3204C341.301 63.3204 343.41 61.7183 344.338 60.2005V62.7723H350.032V40.7228H344.212V53.9609C344.212 56.3219 342.693 58.0926 340.289 58.0926C338.307 58.0926 336.62 56.5748 336.62 54.1295V40.7228H330.8V53.455C330.8 58.1347 332.149 63.3204 338.434 63.3204Z" fill="#190933"/>
<path d="M375.998 32.2903H370.178V43.0411C369.63 42.2822 367.437 40.1742 363.641 40.1742C357.315 40.1742 353.182 44.9382 353.182 51.7681C353.182 58.5558 357.652 63.3198 363.979 63.3198C367.732 63.3198 369.925 61.2119 370.516 60.4951V62.7718H375.998V32.2903ZM370.347 51.8103C370.347 55.3095 368.238 58.1764 364.695 58.1764C361.406 58.1764 359.044 55.7311 359.044 51.8103C359.044 47.9737 361.321 45.3177 364.695 45.3177C367.901 45.3177 370.347 47.6786 370.347 51.8103Z" fill="#190933"/>
<path d="M380.559 62.7716H386.379V40.7221H380.559V62.7716ZM380.053 35.41C380.053 37.3071 381.529 38.7406 383.427 38.7406C385.367 38.7406 386.843 37.3071 386.843 35.41C386.843 33.5128 385.367 32.0793 383.427 32.0793C381.529 32.0793 380.053 33.5128 380.053 35.41Z" fill="#190933"/>
<path d="M389.755 51.8106C389.755 58.4719 394.732 63.3202 401.607 63.3202C408.523 63.3202 413.5 58.4719 413.5 51.8106C413.5 45.1494 408.355 40.1746 401.607 40.1746C394.901 40.1746 389.755 45.1072 389.755 51.8106ZM395.576 51.8106C395.576 48.0163 398.106 45.318 401.607 45.318C405.107 45.318 407.68 48.0584 407.68 51.8106C407.68 55.5628 405.107 58.1767 401.607 58.1767C398.148 58.1767 395.576 55.5628 395.576 51.8106Z" fill="#190933"/>
</svg>
